<svg width="29" height="29" viewBox="0 0 29 29" fill="none" xmlns="http://www.w3.org/2000/svg">
<g id="element-2 1">
<path id="Vector" d="M9.79769 26.9502H5.01184C2.63077 26.9502 1.48169 25.8485 1.48169 23.574V4.85711C1.48169 2.58265 2.64261 1.48096 5.01184 1.48096H9.79769C12.1788 1.48096 13.3278 2.58265 13.3278 4.85711V23.574C13.3278 25.8485 12.1669 26.9502 9.79769 26.9502ZM5.01184 3.25788C3.50738 3.25788 3.25861 3.66065 3.25861 4.85711V23.574C3.25861 24.7705 3.50738 25.1733 5.01184 25.1733H9.79769C11.3022 25.1733 11.5509 24.7705 11.5509 23.574V4.85711C11.5509 3.66065 11.3022 3.25788 9.79769 3.25788H5.01184Z" fill="#292D32"/>
<path id="Vector_2" d="M23.4201 16.2886H18.6343C16.2532 16.2886 15.1041 15.187 15.1041 12.9125V4.85711C15.1041 2.58265 16.265 1.48096 18.6343 1.48096H23.4201C25.8012 1.48096 26.9503 2.58265 26.9503 4.85711V12.9125C26.9503 15.187 25.7894 16.2886 23.4201 16.2886ZM18.6343 3.25788C17.1298 3.25788 16.881 3.66065 16.881 4.85711V12.9125C16.881 14.109 17.1298 14.5117 18.6343 14.5117H23.4201C24.9246 14.5117 25.1734 14.109 25.1734 12.9125V4.85711C25.1734 3.66065 24.9246 3.25788 23.4201 3.25788H18.6343Z" fill="#292D32"/>
<path id="Vector_3" d="M23.4201 26.9496H18.6343C16.2532 26.9496 15.1041 25.8479 15.1041 23.5734V21.4411C15.1041 19.1666 16.265 18.0649 18.6343 18.0649H23.4201C25.8012 18.0649 26.9503 19.1666 26.9503 21.4411V23.5734C26.9503 25.8479 25.7894 26.9496 23.4201 26.9496ZM18.6343 19.8419C17.1298 19.8419 16.881 20.2446 16.881 21.4411V23.5734C16.881 24.7699 17.1298 25.1726 18.6343 25.1726H23.4201C24.9246 25.1726 25.1734 24.7699 25.1734 23.5734V21.4411C25.1734 20.2446 24.9246 19.8419 23.4201 19.8419H18.6343Z" fill="#292D32"/>
</g>
</svg>
