<svg width="25" height="25" viewBox="0 0 25 25" fill="none" xmlns="http://www.w3.org/2000/svg">
<g id="vuesax/linear/routing-2">
<g id="vuesax/linear/routing-2_2">
<g id="routing-2">
<path id="Vector" d="M5.68579 9.43066C7.61879 9.43066 9.18579 7.86366 9.18579 5.93066C9.18579 3.99767 7.61879 2.43066 5.68579 2.43066C3.75279 2.43066 2.18579 3.99767 2.18579 5.93066C2.18579 7.86366 3.75279 9.43066 5.68579 9.43066Z" stroke="#292D32" stroke-width="1.5"/>
<path id="Vector_2" d="M17.1858 15.4307H20.1858C21.2858 15.4307 22.1858 16.3307 22.1858 17.4307V20.4307C22.1858 21.5307 21.2858 22.4307 20.1858 22.4307H17.1858C16.0858 22.4307 15.1858 21.5307 15.1858 20.4307V17.4307C15.1858 16.3307 16.0858 15.4307 17.1858 15.4307Z" stroke="#292D32" stroke-width="1.5"/>
<path id="Vector_3" d="M12.2158 5.43066H14.8958C16.7458 5.43066 17.6058 7.72066 16.2158 8.94066L8.22583 15.9307C6.83583 17.1407 7.69583 19.4307 9.53583 19.4307H12.2158" stroke="#292D32" stroke-width="1.5" stroke-linecap="round" stroke-linejoin="round"/>
<path id="Vector_4" d="M5.70204 5.93066H5.71359" stroke="#292D32" stroke-width="2" stroke-linecap="round" stroke-linejoin="round"/>
<path id="Vector_5" d="M18.702 18.9307H18.7136" stroke="#292D32" stroke-width="2" stroke-linecap="round" stroke-linejoin="round"/>
</g>
</g>
</g>
</svg>
